<?xml version="1.0" standalone="no"?>
<!DOCTYPE svg PUBLIC "-//W3C//DTD SVG 20010904//EN"
 "http://www.w3.org/TR/2001/REC-SVG-20010904/DTD/svg10.dtd">
<svg version="1.0" xmlns="http://www.w3.org/2000/svg"
 width="1200.000000pt" height="480.000000pt" viewBox="0 0 1200.000000 480.000000"
 preserveAspectRatio="xMidYMid meet">

<g transform="translate(0.000000,480.000000) scale(0.100000,-0.100000)"
fill="#000000" stroke="none">
<path d="M5177 4690 c-27 -5 -83 -21 -125 -36 -69 -25 -85 -36 -157 -109 -44
-45 -96 -92 -115 -105 -19 -13 -51 -39 -71 -59 -20 -20 -52 -51 -72 -70 -21
-19 -37 -40 -37 -47 0 -18 -40 -53 -84 -73 -20 -9 -46 -32 -58 -51 -13 -19
-46 -50 -73 -67 -27 -18 -54 -41 -60 -51 -5 -10 -41 -47 -80 -82 -38 -35 -83
-82 -98 -104 -25 -36 -81 -90 -182 -176 -59 -50 -123 -120 -135 -150 -7 -16
-16 -30 -20 -30 -18 0 -103 -75 -125 -110 -14 -22 -42 -48 -62 -59 -21 -11
-54 -36 -73 -56 -19 -20 -48 -44 -65 -52 -41 -22 -144 -122 -162 -158 -9 -16
-22 -34 -30 -38 -22 -13 -182 -158 -212 -191 -14 -17 -41 -44 -59 -60 -18 -17
-75 -73 -126 -123 -52 -51 -99 -93 -105 -93 -6 0 -38 -24 -71 -52 -32 -29 -78
-66 -101 -83 -23 -16 -51 -46 -61 -65 -11 -19 -30 -44 -43 -55 -13 -11 -35
-43 -49 -72 -28 -54 -76 -103 -104 -103 -9 0 -32 -14 -51 -31 -25 -23 -30 -34
-22 -42 15 -15 1558 -22 1638 -8 73 14 171 82 260 181 39 45 86 91 105 103 18
13 37 31 43 42 15 29 88 100 183 178 45 38 82 74 82 80 1 23 100 117 159 152
34 20 61 40 61 45 0 4 27 27 61 49 58 39 81 62 105 106 6 11 26 29 45 40 18
11 56 44 84 73 99 106 228 232 236 232 14 0 79 61 79 75 0 15 61 71 87 79 10
4 29 22 43 41 14 20 39 44 57 56 18 11 51 43 75 71 26 31 83 78 143 116 55 36
113 76 128 89 45 36 82 30 179 -29 104 -64 147 -101 180 -156 21 -35 110 -120
220 -208 13 -10 41 -40 62 -66 21 -26 53 -57 72 -69 40 -24 80 -64 187 -181
43 -48 101 -101 128 -119 27 -17 56 -44 64 -60 8 -15 36 -45 62 -66 140 -112
226 -189 265 -235 24 -28 68 -77 99 -109 49 -51 58 -66 68 -119 18 -91 -3
-173 -53 -205 -13 -9 -36 -34 -51 -55 -27 -39 -86 -81 -135 -95 -28 -8 -237
-218 -250 -252 -5 -13 -35 -34 -74 -53 -59 -28 -67 -35 -78 -71 -7 -26 -25
-51 -46 -68 -19 -14 -48 -39 -66 -54 -17 -16 -56 -46 -87 -67 -41 -28 -64 -54
-84 -92 -36 -70 -47 -81 -92 -97 -22 -7 -64 -39 -99 -74 -34 -34 -75 -72 -92
-85 -18 -13 -32 -30 -32 -37 0 -14 -80 -75 -97 -75 -13 0 -57 -49 -79 -87 -10
-18 -22 -33 -27 -33 -10 0 -110 -100 -192 -194 -33 -38 -67 -77 -75 -86 -8 -9
-30 -25 -49 -35 -19 -9 -67 -49 -107 -89 -40 -39 -114 -109 -165 -156 -80 -74
-194 -187 -302 -299 -17 -18 -36 -40 -40 -47 -7 -12 124 -14 849 -14 l857 0
66 72 c36 39 81 86 99 102 18 17 76 73 129 124 53 51 117 105 142 120 25 14
69 49 97 77 28 27 70 64 94 80 24 17 53 48 65 69 20 39 41 63 105 123 19 18
58 55 85 83 28 28 90 83 138 123 49 39 110 94 135 121 26 28 67 71 92 97 25
25 52 55 60 66 8 12 38 39 65 61 28 21 83 71 123 109 42 40 90 75 110 82 21 7
80 15 133 18 l95 6 25 -33 c13 -18 44 -54 69 -81 25 -26 70 -75 100 -109 30
-34 102 -107 160 -163 58 -56 125 -124 150 -151 25 -27 72 -75 105 -107 125
-122 245 -250 245 -261 0 -5 31 -42 69 -81 37 -40 73 -83 80 -95 6 -12 34 -33
61 -47 30 -15 59 -40 77 -66 15 -23 43 -50 62 -60 51 -27 78 -53 100 -98 19
-36 76 -91 95 -91 17 0 68 -44 76 -66 l10 -24 845 0 c669 0 845 3 845 13 -1 6
-24 26 -52 42 -29 17 -59 42 -67 56 -24 40 -55 83 -66 94 -6 6 -33 43 -59 83
-31 47 -58 77 -75 83 -62 22 -96 46 -116 84 -13 23 -44 55 -73 75 -29 19 -62
50 -74 68 -13 18 -46 43 -74 57 -59 28 -68 38 -109 113 -23 43 -37 58 -60 64
-19 4 -48 28 -75 59 -24 28 -60 62 -81 75 -26 16 -47 41 -63 77 -19 38 -35 58
-60 69 -44 22 -103 74 -112 100 -3 12 -28 30 -60 44 -36 16 -61 35 -73 56 -24
41 -25 42 -84 80 -27 17 -58 45 -69 63 -12 17 -40 44 -62 60 -52 37 -157 136
-267 252 -103 108 -289 278 -345 314 -97 63 -100 66 -120 104 -10 21 -26 49
-34 64 -19 33 -134 148 -172 170 -15 10 -62 55 -104 99 -42 45 -82 82 -89 82
-12 0 -73 62 -91 92 -5 9 -28 25 -51 37 -28 14 -49 34 -62 59 -23 44 -42 63
-98 91 -23 11 -44 30 -48 41 -3 11 -31 41 -61 67 -30 26 -54 52 -54 58 0 19
-92 105 -135 127 -22 12 -57 40 -77 63 -20 22 -55 49 -77 60 -23 10 -49 32
-60 50 -11 18 -45 52 -78 76 -32 23 -60 47 -62 52 -13 33 -154 176 -206 208
-56 35 -182 167 -229 240 -9 15 -34 38 -54 52 -46 31 -192 173 -192 186 0 6
-23 18 -51 28 -45 16 -55 25 -82 71 -18 32 -45 63 -69 78 -21 14 -43 35 -49
47 -6 12 -26 34 -46 47 -40 27 -113 99 -113 111 0 22 -64 71 -130 99 -55 23
-100 34 -170 41 -128 12 -1612 20 -1673 9z"/>
<path d="M10585 4689 l-380 -6 -79 -29 c-75 -27 -82 -33 -120 -88 -25 -36 -64
-76 -99 -100 -32 -23 -68 -54 -79 -69 -11 -15 -36 -34 -56 -43 -48 -20 -68
-39 -98 -94 -15 -28 -39 -53 -61 -65 -41 -23 -53 -48 -53 -116 0 -40 5 -55 25
-74 13 -14 31 -25 39 -25 19 0 53 -44 61 -79 8 -37 66 -105 104 -120 16 -7 43
-30 60 -51 17 -21 43 -41 59 -44 46 -11 91 -43 105 -78 16 -39 64 -89 119
-126 22 -14 50 -44 64 -67 13 -23 35 -48 49 -55 14 -8 39 -35 55 -62 20 -32
37 -48 50 -48 11 0 54 19 96 42 67 38 79 49 102 97 16 33 38 61 56 70 26 15
121 107 305 296 43 44 94 105 114 135 34 52 121 131 216 195 24 16 54 46 67
67 13 21 39 44 57 51 31 14 107 88 107 106 0 5 24 25 53 44 28 19 61 44 71 56
11 12 25 21 33 21 7 0 23 12 36 26 12 14 33 39 47 54 14 15 33 39 42 52 9 14
42 37 73 53 39 19 55 32 53 44 -3 14 -39 17 -343 23 -187 4 -392 8 -455 10
-63 2 -286 0 -495 -3z"/>
<path d="M1665 1002 c-2 -3 -91 -6 -198 -7 -217 -4 -291 -17 -369 -66 -25 -17
-54 -41 -63 -55 -9 -14 -31 -32 -49 -39 -24 -10 -35 -24 -44 -52 -22 -71 -49
-102 -115 -132 -37 -17 -80 -48 -107 -76 -25 -25 -58 -53 -73 -61 -16 -9 -35
-30 -42 -48 -18 -43 -67 -84 -110 -92 -28 -5 -41 -16 -64 -54 -17 -27 -52 -73
-78 -103 -26 -30 -59 -69 -73 -86 -14 -18 -49 -48 -77 -67 -105 -67 -147 -64
797 -64 l850 0 17 37 c13 25 35 47 73 69 30 18 69 49 85 70 54 68 157 157 293
254 23 17 42 34 42 38 0 4 16 23 35 42 20 19 63 68 96 108 33 40 76 88 97 107
20 18 57 52 82 75 25 23 59 48 75 57 37 19 115 93 115 109 0 23 -48 27 -330
30 -157 2 -415 5 -573 7 -158 1 -290 1 -292 -1z"/>
</g>
</svg>
