<?xml version="1.0" standalone="no"?>
<!DOCTYPE svg PUBLIC "-//W3C//DTD SVG 20010904//EN"
 "http://www.w3.org/TR/2001/REC-SVG-20010904/DTD/svg10.dtd">
<svg version="1.0" xmlns="http://www.w3.org/2000/svg"
 width="1596.000000pt" height="1500.000000pt" viewBox="0 0 1596 1500"
 preserveAspectRatio="xMidYMid meet">

<g transform="translate(0.000000,1500.000000) scale(0.100000,-0.100000)"
fill="#000000" stroke="none">
<path d="M7293 14690 c-18 -27 -33 -58 -33 -68 0 -10 -4 -22 -9 -27 -6 -6 -37
-66 -71 -135 -34 -69 -70 -142 -81 -162 -20 -40 -42 -84 -78 -158 -13 -25 -31
-61 -41 -80 -10 -19 -47 -93 -81 -163 -35 -71 -67 -131 -71 -133 -4 -3 -8 -14
-8 -26 0 -11 -8 -32 -18 -46 -11 -15 -47 -85 -81 -157 -34 -71 -69 -141 -77
-155 -8 -14 -22 -41 -31 -60 -8 -19 -20 -44 -26 -55 -13 -25 -28 -55 -39 -77
-4 -10 -12 -26 -18 -35 -5 -10 -16 -34 -24 -53 -8 -19 -22 -46 -30 -60 -9 -14
-22 -41 -30 -60 -8 -19 -22 -46 -30 -60 -8 -14 -29 -56 -47 -95 -17 -38 -40
-82 -50 -97 -11 -14 -19 -34 -19 -43 0 -9 -8 -29 -18 -43 -10 -15 -42 -76 -71
-137 -29 -60 -61 -126 -71 -145 -10 -19 -28 -55 -41 -80 -12 -25 -30 -61 -40
-80 -9 -19 -27 -55 -39 -80 -13 -25 -27 -53 -32 -63 -5 -10 -23 -46 -39 -80
-35 -71 -61 -123 -76 -152 -6 -11 -18 -36 -26 -55 -9 -19 -23 -46 -31 -60 -31
-54 -116 -231 -116 -241 0 -6 -13 -30 -30 -54 -16 -24 -30 -51 -30 -60 0 -9
-8 -29 -18 -43 -10 -15 -33 -58 -51 -97 -18 -38 -38 -79 -44 -90 -11 -21 -31
-62 -52 -105 -6 -14 -17 -34 -23 -45 -6 -11 -28 -56 -50 -100 -21 -44 -43 -89
-49 -100 -6 -11 -80 -159 -163 -330 -83 -170 -157 -319 -163 -330 -6 -11 -42
-83 -79 -160 -38 -77 -74 -149 -80 -160 -7 -11 -20 -38 -30 -60 -10 -22 -23
-48 -28 -57 -23 -41 -31 -57 -71 -141 -23 -48 -46 -90 -50 -93 -5 -3 -9 -15
-9 -28 0 -12 -5 -27 -12 -34 -9 -9 224 -12 1062 -10 l1075 3 3 25 c2 13 17 43
33 66 16 24 29 46 29 51 0 8 90 195 117 243 7 14 21 41 30 60 8 19 20 44 26
55 6 11 28 56 49 100 22 44 43 88 48 98 23 42 30 55 59 114 17 34 34 70 39 80
5 10 19 38 32 63 12 25 30 61 40 80 10 19 30 60 44 90 14 30 32 66 40 80 27
48 176 355 176 363 0 5 14 28 30 52 17 24 30 53 30 64 0 11 4 22 9 25 4 3 27
45 50 93 23 49 47 97 53 108 6 11 15 27 19 35 5 8 15 31 23 50 8 19 22 46 30
60 8 14 47 91 87 173 39 81 75 150 80 153 5 3 9 14 9 26 0 11 8 32 18 46 11
15 25 42 33 60 8 17 16 32 19 32 9 -1 60 -114 60 -133 0 -11 9 -31 19 -46 11
-15 31 -51 45 -81 14 -30 29 -62 34 -70 5 -8 14 -25 20 -37 7 -13 16 -31 22
-40 5 -10 16 -34 24 -53 8 -19 21 -46 29 -60 8 -14 22 -41 30 -60 9 -19 23
-46 30 -60 26 -46 57 -112 57 -122 0 -5 14 -29 30 -53 17 -24 30 -51 30 -60 0
-9 8 -29 18 -43 10 -15 42 -76 71 -137 29 -60 61 -127 72 -147 10 -21 28 -55
38 -75 11 -21 64 -128 119 -238 54 -110 103 -209 109 -220 6 -11 48 -96 93
-190 46 -93 89 -181 97 -195 7 -14 21 -41 30 -60 8 -19 20 -44 26 -55 6 -11
28 -56 50 -100 21 -44 44 -89 50 -100 11 -21 32 -63 52 -105 6 -14 16 -34 22
-45 6 -11 31 -60 54 -108 24 -49 47 -91 51 -93 5 -3 8 -16 8 -29 0 -13 4 -26
9 -29 5 -3 54 -99 110 -213 56 -115 109 -219 117 -233 7 -14 26 -50 40 -80 14
-30 31 -64 37 -75 13 -25 37 -72 76 -152 16 -34 34 -70 39 -80 5 -10 18 -36
29 -58 11 -22 25 -49 31 -60 17 -31 62 -131 62 -139 0 -5 8 -20 18 -34 10 -15
25 -43 32 -62 8 -19 24 -51 37 -70 13 -19 23 -42 23 -50 0 -8 11 -32 25 -52
14 -20 25 -44 25 -53 0 -19 -46 -119 -72 -157 -10 -14 -18 -34 -18 -43 0 -9
-8 -29 -18 -43 -10 -15 -41 -74 -69 -132 -71 -148 -91 -187 -145 -293 -5 -10
-23 -46 -39 -80 -39 -80 -63 -127 -76 -152 -6 -11 -23 -45 -37 -75 -14 -30
-33 -66 -40 -80 -8 -14 -61 -118 -117 -233 -56 -114 -105 -210 -110 -213 -5
-3 -9 -16 -9 -29 0 -13 -3 -26 -8 -29 -4 -2 -27 -44 -51 -93 -23 -48 -48 -97
-54 -108 -6 -11 -17 -32 -24 -47 -7 -16 -19 -40 -26 -55 -7 -16 -18 -37 -24
-48 -6 -11 -29 -56 -50 -100 -22 -44 -44 -89 -50 -100 -6 -11 -18 -36 -26 -55
-9 -19 -23 -46 -30 -60 -8 -14 -51 -101 -97 -195 -45 -93 -87 -179 -93 -190
-6 -11 -55 -110 -109 -220 -55 -110 -108 -217 -119 -237 -10 -21 -28 -55 -38
-75 -11 -21 -43 -87 -72 -148 -29 -60 -61 -122 -71 -137 -10 -14 -18 -34 -18
-43 0 -9 -13 -36 -30 -60 -16 -24 -30 -48 -30 -54 0 -6 -9 -26 -20 -46 -11
-20 -20 -40 -20 -45 0 -5 -13 -31 -30 -57 -16 -26 -30 -53 -30 -61 0 -8 -9
-27 -20 -43 -12 -15 -26 -43 -32 -61 -6 -18 -19 -45 -30 -60 -10 -14 -18 -31
-18 -38 0 -7 -8 -24 -18 -38 -10 -15 -25 -43 -32 -62 -30 -79 -129 -287 -187
-395 -6 -11 -66 -132 -133 -270 -67 -137 -128 -261 -136 -275 -8 -14 -22 -41
-31 -60 -15 -35 -28 -61 -44 -90 -5 -8 -26 -51 -47 -95 -21 -44 -43 -89 -49
-100 -6 -11 -18 -36 -26 -55 -9 -19 -23 -46 -30 -60 -31 -53 -117 -232 -117
-241 0 -6 -13 -30 -30 -54 -16 -24 -30 -53 -30 -64 0 -11 -4 -22 -8 -25 -5 -3
-28 -45 -51 -93 -23 -48 -49 -99 -57 -113 -8 -14 -22 -41 -30 -60 -8 -19 -20
-44 -26 -55 -6 -11 -20 -37 -30 -57 -40 -84 -60 -125 -77 -158 -10 -19 -28
-55 -40 -80 -13 -25 -31 -61 -41 -80 -10 -19 -60 -120 -111 -225 -51 -104
-100 -202 -111 -217 -10 -14 -18 -34 -18 -43 0 -9 -8 -29 -19 -43 -26 -38 -81
-157 -81 -176 0 -15 93 -16 1054 -16 l1054 0 31 63 c17 34 31 66 31 70 0 5 14
28 30 52 17 24 30 52 30 62 0 11 4 23 9 28 6 6 37 66 71 135 34 69 70 142 81
163 22 44 51 100 80 160 11 23 29 58 39 77 10 19 47 93 81 163 35 71 67 131
71 133 4 3 8 14 8 26 0 11 8 32 18 46 11 15 47 86 81 157 34 72 69 141 77 155
8 14 22 41 31 60 26 59 59 124 83 168 5 9 16 33 24 52 8 19 22 46 30 60 9 14
22 41 30 60 8 19 22 46 30 60 8 14 29 57 47 95 17 39 40 82 50 97 11 14 19 34
19 43 0 9 8 29 18 43 10 15 42 77 71 137 29 61 61 126 71 145 10 19 28 55 41
80 12 25 30 61 40 80 9 19 27 55 39 80 13 25 27 53 32 63 5 10 23 46 39 80 35
71 61 123 76 152 6 11 18 36 26 55 9 19 23 46 31 60 31 54 116 231 116 241 0
6 14 30 30 54 17 24 30 51 30 60 0 9 8 29 18 43 10 15 33 59 51 97 18 39 38
79 44 90 6 11 17 32 24 48 7 15 19 39 26 55 7 15 19 36 25 47 6 11 28 56 50
100 21 44 43 89 49 100 6 11 80 160 163 330 83 171 157 319 163 330 27 48 147
294 147 300 0 4 10 20 21 37 l21 29 24 -35 c13 -19 24 -39 24 -45 0 -8 128
-272 173 -356 6 -11 55 -110 109 -220 55 -110 108 -216 118 -235 43 -80 150
-297 150 -304 0 -4 14 -27 30 -51 17 -24 30 -53 30 -64 0 -11 4 -22 9 -25 4
-3 27 -45 50 -93 41 -85 50 -102 71 -140 5 -10 16 -34 24 -53 8 -19 22 -46 30
-60 8 -14 47 -91 87 -173 39 -81 75 -150 80 -153 5 -3 9 -16 9 -29 0 -13 4
-26 8 -29 5 -3 41 -72 81 -153 40 -81 78 -157 84 -168 16 -30 44 -85 65 -130
10 -22 28 -58 39 -80 39 -76 86 -170 93 -185 20 -43 48 -97 58 -115 6 -11 18
-36 26 -55 8 -19 22 -46 30 -60 8 -14 29 -56 47 -95 17 -38 40 -82 50 -97 11
-14 19 -34 19 -43 0 -9 14 -36 30 -60 16 -24 30 -49 30 -55 0 -11 15 -44 53
-115 6 -11 19 -38 29 -60 10 -22 26 -51 34 -65 8 -14 22 -41 31 -60 16 -36 26
-56 42 -87 5 -10 27 -54 48 -98 22 -44 44 -89 50 -100 6 -11 80 -159 163 -330
83 -170 157 -319 163 -330 34 -63 65 -124 77 -155 7 -19 24 -51 37 -70 13 -19
23 -42 23 -50 0 -8 10 -31 23 -50 13 -19 29 -51 37 -70 7 -19 22 -47 32 -62
10 -14 18 -33 18 -42 0 -15 97 -16 1065 -16 1193 0 1087 -8 1040 76 -14 25
-25 49 -25 55 0 6 -14 30 -30 54 -17 24 -30 52 -30 62 0 11 -4 23 -9 28 -6 6
-37 66 -71 135 -34 69 -70 142 -81 163 -22 44 -51 100 -80 160 -11 23 -29 58
-39 77 -10 19 -47 93 -81 163 -35 71 -67 131 -71 133 -4 3 -8 14 -8 26 0 11
-8 32 -18 46 -11 15 -47 86 -81 157 -34 72 -69 141 -77 155 -8 14 -22 41 -31
60 -20 44 -27 59 -43 90 -7 14 -17 33 -22 43 -4 9 -12 25 -18 35 -5 9 -16 33
-24 52 -8 19 -22 46 -30 60 -9 14 -22 41 -30 60 -8 19 -22 46 -30 60 -8 14
-29 57 -47 95 -17 39 -40 82 -50 97 -11 14 -19 34 -19 43 0 9 -8 29 -18 43
-10 15 -42 77 -71 137 -29 61 -61 126 -71 145 -10 19 -28 55 -41 80 -12 25
-30 61 -40 80 -9 19 -27 55 -39 80 -13 25 -27 53 -32 63 -5 10 -23 46 -39 80
-35 71 -61 123 -76 152 -6 11 -18 36 -26 55 -9 19 -23 46 -31 60 -31 54 -116
231 -116 241 0 6 -13 30 -30 54 -16 24 -30 51 -30 60 0 9 -8 29 -18 43 -10 15
-33 59 -51 97 -18 39 -38 79 -44 90 -6 11 -17 32 -24 48 -7 15 -19 39 -26 55
-7 15 -19 36 -25 47 -6 11 -28 56 -50 100 -21 44 -43 89 -49 100 -6 11 -80
160 -163 330 -83 171 -157 319 -163 330 -6 11 -42 83 -79 160 -38 77 -74 149
-80 160 -7 11 -20 38 -30 60 -10 22 -23 48 -28 58 -23 40 -31 56 -71 140 -23
48 -46 90 -50 93 -5 3 -9 14 -9 26 0 11 -8 32 -18 46 -11 15 -47 86 -81 157
-34 72 -67 139 -73 150 -6 11 -20 38 -31 60 -11 22 -24 49 -30 60 -6 11 -24
47 -40 80 -48 100 -63 129 -75 150 -6 11 -24 48 -41 82 -17 34 -35 70 -40 80
-6 10 -41 81 -79 158 -37 77 -73 149 -79 160 -29 54 -173 352 -173 359 0 4
-13 27 -30 51 -16 24 -30 52 -30 62 0 10 -9 29 -20 43 -11 14 -20 29 -20 35 0
8 -29 72 -63 140 -6 11 -17 34 -25 50 -8 17 -22 44 -30 60 -8 17 -24 48 -34
70 -10 22 -23 48 -28 58 -6 9 -14 26 -20 37 -5 11 -14 29 -20 40 -5 11 -14 28
-19 38 -5 9 -17 35 -28 57 -11 22 -24 49 -31 60 -6 11 -101 205 -212 430 -111
226 -208 421 -216 435 -8 14 -22 41 -31 60 -16 36 -26 58 -42 88 -5 9 -28 55
-51 102 -23 47 -46 89 -51 95 -5 5 -9 17 -9 28 0 10 -13 38 -30 62 -16 24 -30
47 -30 52 0 8 -88 193 -116 243 -8 14 -50 95 -92 180 -43 85 -83 164 -89 175
-6 11 -80 160 -163 330 -83 171 -157 319 -163 330 -6 11 -28 56 -49 100 -22
44 -44 89 -50 100 -6 11 -18 32 -25 48 -7 15 -19 39 -26 55 -7 15 -18 36 -24
47 -6 11 -26 52 -44 90 -18 39 -41 82 -51 97 -10 14 -18 34 -18 43 0 9 -13 36
-30 60 -16 24 -30 48 -30 54 0 10 -85 187 -116 241 -8 14 -22 41 -31 60 -8 19
-20 44 -26 55 -15 29 -41 81 -76 152 -16 34 -34 70 -39 80 -5 10 -19 38 -32
63 -12 25 -30 61 -39 80 -10 19 -28 55 -40 80 -13 25 -31 61 -41 80 -10 19
-42 85 -71 145 -29 61 -61 122 -71 137 -10 14 -18 34 -18 43 0 9 -8 29 -19 43
-10 15 -33 59 -50 97 -18 39 -39 81 -47 95 -8 14 -22 41 -30 60 -8 19 -21 46
-30 60 -8 14 -22 41 -30 60 -8 19 -19 43 -24 53 -6 9 -14 26 -20 37 -5 11 -14
29 -20 40 -5 11 -14 28 -19 38 -5 9 -16 33 -24 52 -9 19 -23 46 -31 60 -8 14
-43 84 -77 155 -34 72 -70 142 -81 157 -10 14 -18 35 -18 46 0 12 -4 23 -8 26
-4 2 -36 62 -71 133 -34 70 -71 144 -81 163 -10 19 -27 53 -38 75 -24 50 -56
113 -81 163 -11 20 -47 93 -81 162 -34 69 -65 129 -71 134 -5 6 -9 18 -9 28 0
10 -15 41 -32 68 l-33 50 -730 0 -730 0 -32 -50z"/>
<path d="M13664 14717 c-6 -12 -18 -37 -27 -54 -10 -18 -23 -45 -30 -60 -7
-16 -19 -37 -25 -48 -6 -11 -27 -54 -47 -95 -19 -41 -41 -86 -49 -100 -8 -14
-83 -164 -166 -335 -83 -170 -157 -319 -163 -330 -6 -11 -28 -56 -50 -100 -38
-79 -44 -90 -64 -130 -6 -11 -18 -36 -26 -55 -9 -19 -23 -46 -31 -60 -8 -14
-24 -43 -34 -65 -10 -22 -23 -49 -29 -60 -38 -71 -53 -104 -53 -115 0 -6 -13
-31 -30 -55 -16 -24 -30 -51 -30 -60 0 -9 -8 -29 -19 -43 -10 -15 -33 -58 -50
-97 -18 -38 -39 -81 -47 -95 -8 -14 -22 -41 -30 -60 -8 -19 -20 -44 -26 -55
-6 -11 -19 -36 -29 -55 -9 -19 -32 -64 -50 -100 -18 -36 -36 -72 -39 -80 -4
-8 -18 -35 -30 -60 -13 -25 -32 -63 -42 -85 -19 -41 -46 -94 -65 -130 -6 -11
-29 -56 -51 -101 l-40 -81 27 -54 c15 -30 32 -63 38 -74 6 -11 18 -36 26 -55
9 -19 23 -46 30 -60 8 -14 27 -52 42 -85 27 -60 36 -79 55 -113 5 -9 16 -33
24 -52 8 -19 21 -46 29 -60 8 -14 22 -41 30 -60 9 -19 23 -46 30 -60 26 -46
57 -112 57 -122 0 -5 14 -29 30 -53 17 -24 30 -51 30 -60 0 -9 8 -29 18 -43
10 -15 42 -76 71 -137 29 -60 61 -127 72 -147 10 -21 28 -55 38 -75 11 -21 64
-128 119 -238 54 -110 103 -209 109 -220 28 -52 172 -352 177 -367 6 -20 26
-25 26 -7 0 9 112 240 147 304 6 11 80 160 163 330 83 171 157 319 163 330 6
11 28 56 49 100 22 44 44 89 50 100 6 11 17 31 23 45 21 43 41 84 52 105 6 11
26 52 44 90 18 39 41 82 51 97 10 14 18 34 18 43 0 9 14 36 30 60 17 24 30 48
30 54 0 10 85 187 116 241 8 14 22 41 31 60 8 19 20 44 26 55 15 29 41 81 76
152 16 34 34 70 39 80 5 10 19 38 32 63 12 25 30 61 39 80 10 19 28 55 40 80
13 25 31 61 41 80 10 19 42 85 71 145 29 61 61 122 71 137 10 14 18 34 18 43
0 9 8 29 19 43 10 15 33 59 50 97 18 39 39 81 47 95 8 14 22 41 30 60 8 19 21
46 30 60 8 14 22 41 30 60 8 19 19 43 24 53 6 9 14 25 18 35 5 9 14 27 20 40
22 42 30 57 45 92 9 19 23 46 31 60 8 14 43 84 77 155 34 72 70 142 81 157 10
14 18 35 18 46 0 12 4 23 8 26 4 2 36 62 71 133 34 70 71 144 81 163 10 19 28
54 39 78 29 59 58 115 80 160 11 20 47 93 81 162 34 69 65 129 71 135 5 5 9
17 9 28 0 10 14 38 30 62 17 24 30 46 30 49 0 3 -480 6 -1067 6 l-1068 0 -11
-23z"/>
<path d="M3599 7227 c-8 -12 -35 -62 -58 -112 -24 -49 -48 -99 -54 -110 -6
-11 -42 -83 -79 -160 -38 -77 -73 -148 -79 -158 -5 -10 -23 -46 -40 -80 -17
-34 -35 -71 -41 -82 -12 -21 -27 -50 -75 -150 -16 -33 -34 -69 -40 -80 -6 -11
-19 -38 -30 -60 -11 -22 -25 -49 -31 -60 -6 -11 -39 -78 -73 -150 -34 -71 -70
-142 -81 -157 -10 -14 -18 -35 -18 -46 0 -12 -4 -23 -9 -26 -4 -3 -27 -45 -50
-93 -23 -49 -47 -97 -54 -108 -6 -11 -19 -38 -29 -60 -10 -22 -24 -49 -30 -60
-20 -35 -26 -48 -96 -190 -37 -77 -73 -149 -79 -160 -6 -11 -80 -159 -163
-330 -83 -170 -157 -319 -163 -330 -6 -11 -28 -56 -49 -100 -22 -44 -44 -89
-50 -100 -6 -11 -18 -32 -25 -48 -7 -15 -19 -39 -26 -55 -7 -15 -18 -36 -24
-47 -6 -11 -26 -51 -44 -90 -18 -38 -41 -82 -51 -97 -10 -14 -18 -34 -18 -43
0 -9 -13 -36 -30 -60 -16 -24 -30 -48 -30 -54 0 -10 -85 -187 -116 -241 -8
-14 -22 -41 -31 -60 -8 -19 -20 -44 -26 -55 -15 -29 -41 -81 -76 -152 -16 -34
-34 -70 -39 -80 -5 -10 -19 -38 -32 -63 -12 -25 -30 -61 -39 -80 -10 -19 -28
-55 -40 -80 -13 -25 -31 -61 -41 -80 -10 -19 -42 -84 -71 -145 -29 -60 -61
-122 -71 -137 -10 -14 -18 -34 -18 -43 0 -9 -8 -29 -19 -43 -10 -15 -33 -58
-50 -97 -18 -38 -39 -81 -47 -95 -8 -14 -22 -41 -30 -60 -8 -19 -21 -46 -30
-60 -8 -14 -22 -41 -30 -60 -8 -19 -19 -43 -24 -52 -6 -10 -14 -27 -20 -38 -5
-11 -14 -29 -20 -40 -5 -11 -14 -28 -19 -37 -5 -10 -16 -34 -24 -53 -9 -19
-23 -46 -31 -60 -8 -14 -43 -83 -77 -155 -34 -71 -70 -142 -81 -157 -10 -14
-18 -35 -18 -46 0 -12 -4 -23 -8 -26 -4 -2 -36 -62 -71 -133 -34 -70 -71 -144
-81 -163 -10 -19 -28 -54 -39 -77 -29 -60 -58 -116 -80 -160 -11 -21 -47 -94
-81 -163 -34 -69 -65 -129 -71 -134 -5 -6 -9 -18 -9 -29 0 -10 -13 -38 -30
-62 -16 -24 -30 -48 -30 -54 0 -6 -11 -30 -25 -55 -47 -84 -153 -76 1040 -76
1006 0 1066 1 1072 18 13 37 67 148 84 174 11 14 19 34 19 43 0 9 8 29 18 43
11 15 60 113 111 217 51 105 101 206 111 225 10 19 28 55 41 80 12 25 30 61
40 80 9 19 26 53 37 75 47 97 59 121 70 140 6 11 18 36 26 55 8 19 22 46 30
60 8 14 34 65 57 113 23 48 46 90 51 93 4 3 8 14 8 25 0 11 14 40 30 64 17 24
30 48 30 54 0 9 86 188 117 241 7 14 21 41 30 60 8 19 20 44 26 55 6 11 28 56
49 100 21 44 43 88 48 98 14 24 25 47 43 87 9 19 23 46 31 60 8 14 69 138 136
275 67 138 127 259 133 270 6 11 42 83 80 160 74 152 78 160 95 190 6 11 20
38 30 60 10 22 23 49 29 60 16 31 35 69 44 85 5 8 15 31 23 50 8 19 21 46 29
60 8 14 22 41 30 60 9 19 23 46 30 60 26 46 57 112 57 122 0 5 14 29 30 53 17
24 30 51 30 60 0 9 8 29 18 43 10 15 42 77 71 137 29 61 61 127 72 148 10 20
28 54 38 75 11 20 64 127 119 237 54 110 103 209 109 220 6 11 48 97 93 190
46 94 89 181 97 195 7 14 21 41 30 60 8 19 20 44 26 55 6 11 28 56 50 100 21
44 44 89 50 100 6 11 17 32 24 48 7 15 19 39 26 55 7 15 18 36 24 47 6 11 31
60 54 108 24 49 47 91 51 93 5 3 8 16 8 29 0 13 4 26 9 29 5 3 54 99 110 213
56 115 109 219 117 233 7 14 26 50 40 80 14 30 31 64 37 75 13 25 37 72 76
152 16 34 34 70 39 80 37 72 57 113 74 148 10 22 23 48 28 57 28 51 92 48
-1047 48 l-1058 -1 -16 -22z"/>
</g>
</svg>
